Coordinates
version=1
nRows=29
nColumns=24
inDegrees=yes

Units are S.I. units (second, meters, Newtons, ...)
Angles are in degrees.

endheader
time	pelvis_tilt	pelvis_list	pelvis_rotation	pelvis_tx	pelvis_ty	pelvis_tz	hip_flexion_r	hip_adduction_r	hip_rotation_r	knee_angle_r	ankle_angle_r	subtalar_angle_r	mtp_angle_r	hip_flexion_l	hip_adduction_l	hip_rotation_l	knee_angle_l	ankle_angle_l	subtalar_angle_l	mtp_angle_l	lumbar_extension	lumbar_bending	lumbar_rotation
      3.83000000	    -14.99298999	     -4.56743159	      5.18505148	     -2.02893731	     -0.03454174	     -0.29284999	     41.86221446	      0.95077750	    -17.72121749	    -16.80002972	     -0.15596783	     -3.21177625	     15.91005820	     -1.61930258	     -3.83920418	     -2.98479569	    -19.15519654	      6.12244896	     11.54936936	     11.53724736	     20.28393037	     -0.00559046	    -21.49609797
      3.83500000	    -15.03605637	     -4.78038798	      5.21273844	     -2.02112471	     -0.03551207	     -0.29241476	     41.94108700	      1.17401787	    -17.44567288	    -17.50651477	     -0.80074671	     -4.05301525	     15.94739017	     -1.60394635	     -4.23000601	     -3.04877940	    -19.97226130	      5.51026566	     11.92439360	     11.59903463	     20.46768363	      0.20533372	    -21.60250748
      3.84000000	    -15.04289650	     -5.02307964	      5.21114649	     -2.01329424	     -0.03643864	     -0.29193262	     42.00059976	      1.45795623	    -17.14390082	    -18.26150498	     -1.54425404	     -5.05181211	     15.95022204	     -1.60583318	     -4.67058436	     -3.19066304	    -20.81196231	      4.84359236	     12.35027268	     11.83860624	     20.61307503	      0.46180140	    -21.70711427
      3.84500000	    -15.06298807	     -5.29099317	      5.17294490	     -2.00542013	     -0.03734014	     -0.29135595	     42.06993619	      1.81102178	    -16.75182595	    -19.01440335	     -2.33829889	     -6.18797097	     15.91587203	     -1.55354572	     -5.15610079	     -3.42408855	    -21.71055477	      4.05242091	     12.79717593	     12.24796232	     20.77664039	      0.74695228	    -21.77221129
      3.85000000	    -15.09371896	     -5.57018694	      5.13177617	     -1.99754417	     -0.03821970	     -0.29076634	     42.16712035	      2.18589089	    -16.31251690	    -19.81137041	     -3.12035970	     -7.42607688	     15.81419964	     -1.44451622	     -5.66701563	     -3.71122581	    -22.66178919	      3.14542302	     13.23341102	     12.82142282	     20.95160677	      1.04475591	    -21.83318960
      3.85500000	    -15.10313611	     -5.79921550	      4.95439931	     -1.98957170	     -0.03904800	     -0.28995954	     42.26773814	      2.62522506	    -15.73151280	    -20.68308080	     -3.80534815	     -8.61193665	     15.46833095	     -1.40705150	     -6.15923042	     -4.25768962	    -23.47373318	      1.86815080	     13.53263960	     14.79772347	     21.10142851	      1.33835143	    -21.76391732
      3.86000000	    -15.14801938	     -6.14078725	      5.02173526	     -1.98181326	     -0.03983471	     -0.28953985	     42.40587740	      2.98352429	    -15.35657525	    -21.55419122	     -4.44609093	     -9.87810188	     15.18690965	     -1.12044563	     -6.73527120	     -4.37158990	    -24.62604633	      0.77915574	     13.82322966	     15.21668843	     21.28330771	      1.66088352	    -21.98713613
      3.86500000	    -15.23634756	     -6.41544623	      4.76605220	     -1.97392926	     -0.04071878	     -0.28859970	     42.62770104	      3.53470003	    -14.60777458	    -22.51443151	     -4.95663023	    -11.01974381	     14.27349371	     -0.85994843	     -7.31408832	     -5.08280081	    -25.68313885	     -0.62656868	     14.18072924	     17.01060324	     21.49775190	      2.01811363	    -21.87437990
      3.87000000	    -15.30941428	     -6.74901722	      4.73141136	     -1.96613503	     -0.04146925	     -0.28791221	     42.81102718	      3.99268681	    -14.08946128	    -23.45510021	     -5.32880633	    -12.20492759	     13.30973363	     -0.48138354	     -7.94308669	     -5.41644114	    -26.86370283	     -2.13793666	     14.43194992	     18.44824346	     21.70175400	      2.34463526	    -22.01951741
      3.87500000	    -15.28210112	     -6.99654629	      4.73460476	     -1.95841943	     -0.04204221	     -0.28727499	     42.89754498	      4.36014341	    -13.60128197	    -24.48108042	     -5.39939217	    -13.09378663	     11.63671439	     -0.18864783	     -8.47071670	     -5.62740322	    -27.96590706	     -3.99666066	     14.34228410	     20.72272922	     21.77702891	      2.58550170	    -22.15569393
      3.88000000	    -15.35190039	     -7.31285016	      4.65699126	     -1.95076154	     -0.04278399	     -0.28652388	     43.07950407	      4.83253651	    -13.11331017	    -25.44438794	     -5.45780139	    -14.04497962	     10.68544282	      0.31634412	     -9.10958378	     -6.00525897	    -29.33344420	     -5.70071957	     14.59573439	     21.91450019	     21.94598965	      2.90984613	    -22.24674017
      3.88500000	    -15.36198682	     -7.62060343	      4.61326529	     -1.94305534	     -0.04336082	     -0.28588935	     43.17060303	      5.26906221	    -12.78591926	    -26.41990057	     -5.28628626	    -14.74162817	      9.03025949	      0.77415501	     -9.71441138	     -6.25821597	    -30.60154957	     -7.78334983	     14.33085949	     24.02177442	     22.06030911	      3.23103787	    -22.33491957
      3.89000000	    -15.35136694	     -7.91384677	      4.60557916	     -1.93552260	     -0.04392159	     -0.28526949	     43.21747925	      5.67581673	    -12.46951506	    -27.34751790	     -4.99283733	    -15.36358600	      7.63930913	      1.31222962	    -10.30971421	     -6.42831684	    -32.00572169	     -9.88184344	     14.12590793	     25.69633682	     22.12414793	      3.52053045	    -22.48468253
      3.89500000	    -15.34027883	     -8.19747747	      4.65611212	     -1.92819012	     -0.04447013	     -0.28466164	     43.24090071	      6.04162266	    -12.21404542	    -28.21246248	     -4.65412819	    -16.04392159	      6.55666790	      1.95898087	    -10.88990300	     -6.45439302	    -33.52688457	    -11.99930992	     13.95274599	     27.02525438	     22.15340317	      3.76868141	    -22.71186918
      3.90000000	    -15.28162861	     -8.47640177	      4.63429462	     -1.92071849	     -0.04491271	     -0.28415297	     43.16302809	      6.42081410	    -12.07434378	    -29.05114520	     -4.06011734	    -16.26771331	      5.13259443	      2.52930267	    -11.43619587	     -6.51984225	    -34.96106676	    -14.35181555	     13.35137119	     28.77958722	     22.15050874	      4.07353014	    -22.80104775
      3.90500000	    -15.15387914	     -8.76352122	      4.64167117	     -1.91344765	     -0.04529998	     -0.28374310	     42.96397937	      6.78907912	    -11.99719058	    -29.74237936	     -3.53834490	    -16.69080507	      4.93922859	      3.13835819	    -11.97545679	     -6.50370559	    -36.61762413	    -16.48230780	     12.91329791	     28.87465912	     22.04191900	      4.39543631	    -22.92465988
      3.91000000	    -15.18925887	     -9.03502556	      4.63598933	     -1.90624989	     -0.04583371	     -0.28315398	     42.94358573	      7.13307819	    -11.97783921	    -30.50710683	     -2.81479694	    -16.74127082	      3.39373534	      3.95548590	    -12.49729782	     -6.42683412	    -38.16233946	    -18.81394281	     12.18578910	     30.75045759	     22.09291462	      4.65835753	    -23.03782940
      3.91500000	    -15.04674479	     -9.34348230	      4.62413755	     -1.89911737	     -0.04615411	     -0.28270582	     42.64680580	      7.53956144	    -11.96113700	    -31.05376451	     -2.20366079	    -17.02104374	      3.27746633	      4.63968799	    -13.03410628	     -6.32056435	    -39.87285072	    -20.84718990	     11.54291576	     30.69265033	     21.94621722	      5.00142165	    -23.12942524
      3.92000000	    -15.06060669	     -9.61855570	      4.69603171	     -1.89217061	     -0.04659150	     -0.28238114	     42.51491094	      7.80287166	    -12.10202165	    -31.63006764	     -1.44547870	    -16.97097562	      2.65180221	      5.59143154	    -13.47400034	     -5.99270072	    -41.60185420	    -22.82018183	     10.71443710	     31.13555327	     21.94720571	      5.26746256	    -23.31284969
      3.92500000	    -14.94655129	     -9.94262541	      4.59949204	     -1.88513842	     -0.04690964	     -0.28186766	     42.17802419	      8.26379290	    -12.14120139	    -32.05674984	     -0.77541959	    -17.06594064	      2.56424680	      6.35806588	    -14.01507514	     -5.93897991	    -43.35001749	    -24.53539077	      9.85578800	     31.00616168	     21.80888906	      5.66468340	    -23.29188597
      3.93000000	    -14.87832409	    -10.25944992	      4.56094264	     -1.87822726	     -0.04721105	     -0.28144943	     41.85911460	      8.66103091	    -12.25534521	    -32.43135002	     -0.06882896	    -17.05021974	      2.47460656	      7.24414303	    -14.50128720	     -5.73894955	    -45.12337846	    -26.04797862	      8.83779410	     30.81374213	     21.70937400	      6.02396875	    -23.32871175
      3.93500000	    -14.92609674	    -10.51237505	      4.58773284	     -1.87151528	     -0.04756687	     -0.28117310	     41.66231082	      8.90665651	    -12.47348405	    -32.82430948	      0.71230457	    -16.80866935	      2.19492141	      8.34122223	    -14.84305640	     -5.35263310	    -46.94667317	    -27.31140943	      7.73671491	     30.38026753	     21.71223470	      6.29151021	    -23.42096791
      3.94000000	    -14.93464227	    -10.79647588	      4.53922807	     -1.86478006	     -0.04783681	     -0.28079132	     41.37323557	      9.25823180	    -12.61354660	    -33.11791853	      1.43618302	    -16.61764372	      1.99785778	      9.38425030	    -15.22941901	     -5.06185482	    -48.76595817	    -28.25115572	      6.59926685	     29.63136125	     21.67262838	      6.61582830	    -23.43210598
      3.94500000	    -14.98455071	    -11.09078822	      4.44729700	     -1.85803437	     -0.04811059	     -0.28043495	     41.08550934	      9.63254889	    -12.75983600	    -33.34075931	      2.17218408	    -16.35121902	      1.86414269	     10.47931886	    -15.60633672	     -4.78867611	    -50.60871689	    -28.77487039	      5.49976495	     28.39122036	     21.68196239	      6.97042835	    -23.34502125
      3.95000000	    -14.94646055	    -11.36210425	      4.38779301	     -1.85132792	     -0.04815078	     -0.28006679	     40.64831577	     10.01443144	    -12.84889131	    -33.44693359	      2.79699968	    -16.28623604	      1.88669779	     11.47492979	    -15.94163673	     -4.49480654	    -52.32673602	    -29.16223743	      4.14266404	     27.66498562	     21.59690895	      7.29282627	    -23.28154813
      3.95500000	    -15.05777857	    -11.59728786	      4.26281103	     -1.84470090	     -0.04832296	     -0.27972381	     40.36745117	     10.34726906	    -12.93679620	    -33.57328434	      3.47386698	    -15.96520108	      1.94378914	     12.65792886	    -16.21330012	     -4.22966616	    -54.12394949	    -29.06289068	      3.03315250	     26.00346775	     21.65633042	      7.59495052	    -23.16754632
      3.96000000	    -15.08254314	    -11.81254361	      4.15153329	     -1.83807369	     -0.04826375	     -0.27936463	     39.94174825	     10.69965321	    -12.96756034	    -33.59881084	      4.06109280	    -15.80210571	      1.98079018	     13.72231794	    -16.45290530	     -3.97655021	    -55.78399140	    -28.78554249	      1.76411853	     24.70568709	     21.62665290	      7.87827002	    -23.01943850
      3.96500000	    -15.13655118	    -11.98401813	      4.02348549	     -1.83146548	     -0.04812354	     -0.27899977	     39.51538306	     11.02589505	    -12.94646213	    -33.58116558	      4.61890748	    -15.64243991	      2.00450956	     14.80107906	    -16.62499938	     -3.73594643	    -57.35277350	    -28.28190618	      0.49629427	     23.50099834	     21.62720149	      8.11798673	    -22.83462337
      3.97000000	    -15.19081752	    -12.11429052	      3.88667814	     -1.82487323	     -0.04786574	     -0.27864042	     39.05546978	     11.33039878	    -12.87171643	    -33.51480918	      5.14336158	    -15.49796405	      1.99621953	     15.85996866	    -16.73672495	     -3.51520882	    -58.82206394	    -27.57290420	     -0.73917496	     22.33370589	     21.62910437	      8.31903813	    -22.61862553
